<svg width="240" height="324" viewBox="0 0 240 324" fill="none" xmlns="http://www.w3.org/2000/svg">
<path fill-rule="evenodd" clip-rule="evenodd" d="M186.455 183.121C183.523 169.222 173.122 158.437 159.135 153.064C156.446 151.543 153.84 145.015 150.226 143.82C149.647 143.628 150.561 145.153 150.226 145.244C149.031 145.569 147.692 145.603 146.373 144.43C144.015 142.333 143.275 136.207 141.841 133.439C134.28 118.837 115.4 124.55 112.871 140.692C111.108 141.842 108.615 142.855 106.695 143.782C104.718 144.736 102.979 147.047 100.942 147.873C99.1242 148.61 96.1292 148.088 94.2982 148.731C85.8742 151.687 78.7382 155.417 73.1452 162.975C71.9662 164.569 70.6382 166.529 69.5652 168.139C64.0352 174.507 60.1952 181.645 56.6572 189.303C46.7602 211.78 44.0682 236.667 41.6532 260.885C41.7082 265.123 38.8972 276.872 43.0542 278.904C42.8062 279.162 42.8962 279.679 43.3572 279.675C53.8972 279.568 64.4142 280.512 74.7912 282.347C79.7982 283.232 84.7782 284.446 89.8782 284.645C100.465 284.572 111.013 282.798 121.586 284.477C134.297 284.477 149.744 284.106 163.884 283.563C177.099 283.054 190.385 284.202 203.437 281.954C204.47 281.79 204.974 280.53 204.758 279.627C203.227 274.045 202.475 268.3 201.616 262.587C201.787 258.923 201.481 255.097 200.126 251.684C196.585 228.643 192.045 205.752 186.455 183.121Z" fill="white"/>
<path fill-rule="evenodd" clip-rule="evenodd" d="M182.19 213.406C181.915 214.77 181.518 216.107 181.001 217.399C180.5 218.637 179.746 219.747 179.227 220.971C179.159 221.127 179.047 221.261 178.905 221.355L178.948 221.688L178.988 222.021C179.247 224.267 179.538 226.508 179.791 228.754L179.913 229.877C180.41 234.567 181.193 239.233 181.802 243.911C182.398 248.491 183.004 253.071 183.652 257.644C184.322 262.359 185.005 267.068 185.801 271.764C186.137 273.749 186.488 275.731 186.854 277.71L187.136 279.225C190.043 279.925 190.838 283.978 187.878 285.475C186.534 286.151 184.808 285.988 183.701 284.925C182.55 283.818 182.503 281.82 182.236 280.32L181.978 278.926C180.053 268.442 178.383 257.837 177.602 247.206C177.401 244.46 177.232 241.713 177.122 238.963C177.018 236.376 177.068 233.79 177.028 231.204L177.014 230.498C176.953 227.74 177.004 224.986 177.076 222.228C177.084 221.892 177.099 221.556 177.116 221.218C177.021 221.108 176.954 220.978 176.92 220.837L176.881 220.664C176.786 220.218 176.894 219.696 177.236 219.377C177.384 217.498 177.579 215.621 177.631 213.745C177.636 213.59 177.857 213.595 177.87 213.745C177.995 215.342 178.244 216.944 178.493 218.544C180.097 217.255 181.282 215.129 181.981 213.349C182.032 213.22 182.22 213.267 182.19 213.406ZM144.251 138.711C144.517 139.928 145.043 141.021 145.749 142.038C146.085 142.524 146.467 142.976 146.926 143.354C147.319 143.678 147.767 143.889 148.185 144.17C148.49 144.127 148.801 144.157 149.091 144.259C149.382 144.36 149.644 144.53 149.856 144.753L149.789 144.098C149.767 143.887 150.118 143.845 150.158 144.05C152.007 153.375 153.692 162.706 155.151 172.098L155.791 176.246L156.393 180.14C157.392 186.629 158.359 193.115 159.086 199.652C160.056 208.374 160.871 217.12 161.467 225.878C162.065 234.698 162.433 243.524 162.695 252.36C162.76 254.588 162.83 256.814 162.898 259.041L163.349 256.378C163.799 253.714 164.241 251.048 164.619 248.372C165.978 238.796 167.064 229.152 167.594 219.493C168.08 210.655 167.917 201.641 165.67 193.03C165.107 190.863 164.407 188.733 163.574 186.654C162.762 184.633 161.655 182.76 160.783 180.77C159.769 178.453 159.464 176.268 159.986 173.774C160.443 171.601 161.244 169.558 161.387 167.322C161.655 163.171 160.305 159.151 158.398 155.518C157.893 154.559 157.364 153.612 156.811 152.679C155.136 149.849 153.247 147.123 151.286 144.508C151.181 144.369 151.405 144.215 151.519 144.329C153.306 146.096 155.26 147.833 156.868 149.763C157.653 150.699 158.409 151.659 159.135 152.641C167.062 153.966 173.873 158.905 178.529 165.428C183.813 172.829 186.486 181.738 188.463 190.511C190.663 200.26 192.517 210.099 194.493 219.897C196.538 230.036 198.572 240.174 200.63 250.31C201.652 255.342 202.675 260.375 203.695 265.409C204.213 267.958 204.756 270.502 205.324 273.041C205.616 274.343 205.929 275.643 206.199 276.949C206.503 278.422 206.22 279.364 205.223 280.447C204.855 280.848 204.274 280.842 203.818 280.629L203.675 280.561L203.537 280.495C202.973 280.217 202.53 279.929 202.179 279.312C201.792 278.633 201.731 277.881 201.598 277.126C201.352 275.738 201.11 274.349 200.865 272.959C200.498 270.879 200.1 268.805 199.695 266.732L197.662 256.371C197.12 253.608 196.577 250.846 196.031 248.085C194.081 238.211 192.129 228.338 190.177 218.466C188.302 208.987 186.644 199.443 184.51 190.018L184.389 189.487L184.266 188.957C182.358 180.833 179.692 172.974 174.855 166.089C171.133 160.795 165.963 156.067 159.874 153.674C160.303 154.292 160.715 154.922 161.108 155.564C163.576 159.597 165.378 164.384 164.955 169.186C164.748 171.532 163.857 173.837 163.941 176.202C164.019 178.303 165.319 180.148 166.217 181.976C168.255 186.119 169.73 190.521 170.681 195.038C172.589 204.107 172.582 213.438 171.925 222.644C171.211 232.652 169.855 242.657 168.31 252.567C167.518 257.65 166.464 262.691 165.657 267.766C165.258 270.268 164.714 272.764 164.239 275.254L164.013 276.443C163.889 277.102 163.752 277.759 163.602 278.413L163.508 278.802V278.872C163.504 279.352 163.373 279.749 163.162 280.066C162.872 280.994 162.513 281.899 162.036 282.767C161.791 283.211 161.436 283.46 161.049 283.552C160.66 284.441 159.779 285.126 158.727 285.122L144.891 285.069C136.855 285.037 128.818 284.984 120.781 284.94C118.753 284.93 116.727 284.891 114.701 284.839C112.802 284.786 110.981 284.558 109.103 284.321C106.981 284.055 105.832 282.552 106.149 280.432C106.219 279.965 106.295 279.5 106.367 279.035C105.944 279.174 105.441 279.109 105.101 278.777L104.782 278.465C104.34 278.027 103.945 277.598 103.665 277.014C103.375 276.414 103.14 275.78 102.885 275.167C102.334 273.849 101.797 272.526 101.275 271.196C100.229 268.537 99.184 265.868 98.212 263.181C96.2877 257.86 94.5832 252.462 93.103 247.001C90.4691 237.255 88.5458 227.33 87.348 217.306L87.06 214.918L86.977 214.212C86.52 210.329 86.136 206.385 86.317 202.509C86.429 200.083 86.805 197.638 87.712 195.372C88.548 193.282 89.839 191.494 91.067 189.625L91.207 189.41L91.348 189.189C92.422 187.492 93.276 185.718 93.318 183.657C93.362 181.565 92.753 179.53 92.072 177.572L91.902 177.089L91.788 176.77C90.34 172.723 88.691 168.734 89.235 164.331C90.038 157.847 93.967 152.62 98.911 148.59C94.514 149.46 90.162 151.181 86.321 153.362C81.786 155.94 77.701 159.343 74.18 163.183C67.525 170.441 62.774 179.149 58.884 188.14C54.813 197.549 51.794 207.408 49.519 217.397C47.231 227.442 45.699 237.648 44.653 247.895C44.1385 252.996 43.7148 258.106 43.382 263.222C43.208 265.842 43.077 268.467 42.874 271.084C42.672 273.698 42.581 276.353 41.943 278.898C41.645 280.083 39.636 280.204 39.42 278.898C38.943 275.981 39.076 272.964 39.21 270.01L39.221 269.742C39.353 266.8 39.524 263.86 39.726 260.92C40.141 254.911 40.694 248.911 41.416 242.93C43.95 221.934 48.621 201.049 57.784 181.884C62.098 172.857 67.635 164.086 75.338 157.568C79.0039 154.473 83.142 151.985 87.595 150.2C91.58 148.596 95.628 147.837 99.862 147.839C101.985 146.212 104.265 144.794 106.542 143.582C106.679 143.509 106.823 143.686 106.709 143.8C106.65 143.857 106.593 143.916 106.534 143.972C106.791 143.988 107.057 144.109 107.296 144.36C108.133 145.237 108.839 146.334 109.47 147.473C110.431 148.674 111.348 149.915 112.308 151.102C113.847 153.003 115.413 154.882 117.006 156.739C119.678 159.865 122.437 162.931 125.314 165.875L125.795 166.364C127.286 167.875 128.797 169.684 130.561 170.88L130.655 170.943C131.399 171.428 131.927 171.516 132.562 170.792C133.139 170.132 133.619 169.367 134.112 168.64L134.227 168.473C136.747 164.811 139.084 161.013 141.198 157.103C142.162 155.323 143.079 153.518 143.949 151.693L144.209 151.145C144.682 150.139 145.196 149.152 145.586 148.116C145.677 147.873 145.766 147.63 145.852 147.389C144.521 146.516 143.491 144.627 143.117 143.147C142.728 141.611 142.925 140.034 143.617 138.629C143.748 138.364 144.188 138.43 144.251 138.711ZM78.591 201.15C78.407 206.992 78.296 212.84 78.021 218.678L77.926 220.67C78.354 221.148 78.606 221.7 78.406 222.457C78.3653 222.605 78.2899 222.741 78.1861 222.853C78.0822 222.966 77.9529 223.052 77.809 223.105L77.719 224.958C77.312 233.295 76.834 241.614 75.961 249.93C74.869 260.337 73.605 270.727 72.344 281.115C72.164 282.586 71.142 283.752 69.551 283.537C67.941 283.319 67.289 281.918 67.5 280.457C68.33 274.728 69.129 268.994 69.828 263.245L70.624 256.696C71.624 248.508 72.645 240.323 73.824 232.162C74.315 228.751 74.827 225.341 75.34 221.932L75.16 221.7C74.427 220.747 73.669 219.815 72.919 218.876C71.478 217.067 70.056 215.273 68.736 213.379C68.67 213.284 68.803 213.144 68.898 213.216C70.748 214.584 72.501 216.046 74.263 217.532L75.805 218.838C76.692 212.948 77.571 207.055 78.355 201.15C78.374 201.002 78.595 200.992 78.591 201.15ZM105.213 145.244C104.1 146.294 102.961 147.321 101.839 148.366L101.428 148.75L101.019 149.136C99.047 151.007 97.158 152.954 95.584 155.19C92.694 159.297 90.972 164.303 92.174 169.317C93.171 173.47 95.459 177.234 96.074 181.49C96.382 183.623 96.232 185.766 95.429 187.78C94.609 189.835 93.299 191.595 92.123 193.449C89.567 197.477 89.218 201.898 89.472 206.565C89.738 211.439 90.298 216.314 90.989 221.144C92.389 230.934 94.4935 240.61 97.286 250.097C98.683 254.846 100.333 259.494 101.974 264.16C102.792 266.483 103.745 268.751 104.727 271.008C105.246 272.195 105.775 273.378 106.314 274.556C106.115 272.891 106.115 271.181 106.018 269.526C105.878 267.155 105.701 264.788 105.538 262.419C105.207 257.61 104.911 252.798 104.647 247.986C103.711 230.824 103.022 213.647 103.073 196.458C103.098 187.863 103.274 179.267 103.643 170.68C103.817 166.636 104.152 162.596 104.456 158.558L104.52 157.692C104.789 154.068 105.11 150.435 105.661 146.842C105.497 146.478 105.36 146.102 105.251 145.718L105.213 145.574L105.241 145.578C105.216 145.469 105.206 145.356 105.213 145.244ZM114.843 130.475C114.866 130.375 115.007 130.384 115.033 130.475C115.66 132.588 115.438 134.913 114.898 137.039C114.601 138.19 114.197 139.311 113.691 140.387L113.516 140.764C113.087 141.682 112.604 142.628 111.769 143.2C111.42 143.439 110.797 143.454 110.448 143.2L110.27 143.065L110.184 142.995C109.859 142.722 109.698 142.12 109.848 141.723C110.235 140.698 111.112 139.945 111.718 139.032C112.257 138.22 112.728 137.365 113.125 136.475C113.976 134.55 114.359 132.506 114.843 130.475Z" fill="black"/>
<path fill-rule="evenodd" clip-rule="evenodd" d="M133.581 60.2721C165.379 61.2791 167.297 76.3891 167.297 101.729C167.297 127.068 150.801 143.036 144.727 145.824C138.653 148.613 122.66 160.589 108.226 155.07C93.793 149.551 97.973 126.234 97.973 116.215C97.973 106.197 101.782 59.2651 133.581 60.2721Z" fill="white"/>
<path fill-rule="evenodd" clip-rule="evenodd" d="M146.481 137.502C140.642 140.763 133.955 140.89 127.674 138.838C123.907 137.61 120.453 135.712 117.22 133.442C114.408 131.466 111.899 129.274 109.412 126.947C107.365 122.431 105.542 117.923 104.688 113.009C103.923 108.598 103.822 104.018 104.709 99.6149C111.271 94.2149 117.793 88.7709 124.306 83.3099C127.618 80.5239 130.954 77.7672 134.314 75.0399C136.023 73.6569 137.716 72.2539 139.418 70.8649L140.259 70.1809C143.775 72.7549 147.544 74.9609 151.034 77.5779C152.866 78.951 154.633 80.4086 156.33 81.9459C157.218 82.7523 158.085 83.5819 158.929 84.4339C159.702 85.2119 160.448 86.3279 161.545 86.6219C161.695 86.6619 161.836 86.6699 161.969 86.6519C163.435 99.4919 164.477 113.359 158.196 125.022C155.456 130.109 151.571 134.657 146.481 137.502ZM108.493 142.222C107.689 141.485 108.887 140.292 109.688 141.026C114.718 145.635 121.293 148.078 127.934 149.208C129.006 149.391 128.549 151.02 127.485 150.839C120.551 149.658 113.736 147.025 108.493 142.222ZM102.458 149.293C101.498 148.778 102.353 147.319 103.311 147.833C107.23 149.935 111.527 151.027 115.887 151.765C116.959 151.946 116.502 153.575 115.438 153.395C110.93 152.633 106.507 151.465 102.458 149.293ZM118.405 78.0629C121.657 75.1429 125.151 72.3659 128.842 70.0229C132.577 67.6509 136.657 66.2329 141.066 66.1989C140.758 66.4459 140.464 66.7209 140.166 66.9759C139.334 67.6889 138.503 68.4059 137.673 69.1199C136.012 70.5499 134.348 71.9799 132.708 73.4329C129.48 76.2989 126.241 79.1499 123.02 82.0229C116.828 87.5353 110.767 93.1919 104.84 98.9879C104.872 98.8459 104.906 98.7039 104.939 98.5629C106.902 90.3629 112.241 83.5969 118.405 78.0629ZM143.893 66.5559C143.914 66.4929 143.929 66.4309 143.937 66.3719C152.399 67.4749 159.466 73.7039 161.802 81.9039C161.599 82.1869 161.487 82.5239 161.529 82.8809L161.593 83.4209C161.303 83.1339 161.005 82.8659 160.752 82.6109C159.909 81.7569 159.044 80.925 158.158 80.1159C156.35 78.4636 154.452 76.9129 152.472 75.4709C149.018 72.9599 145.279 70.6509 141.161 69.4469C141.432 69.2249 141.702 69.0029 141.975 68.7839C142.788 68.1219 143.542 67.5769 143.893 66.5559ZM159.062 57.7869C153.867 52.1079 146.673 47.9489 139.098 46.5029C131.864 45.1209 124.374 46.0319 117.54 48.7179C103.239 54.3399 91.955 66.7019 86.671 81.0279C83.591 89.3729 82.581 98.5229 83.507 107.357C84.427 116.151 87.075 125.233 91.892 132.715C92.333 133.4 92.817 134.057 93.324 134.693C93.098 137.276 92.236 139.808 90.88 142.01C90.807 142.128 90.73 142.244 90.654 142.36C89.265 143.4 87.824 144.377 86.418 145.385C85.199 146.258 83.993 147.154 82.847 148.121C81.765 149.035 80.508 150.052 79.776 151.284C79.176 152.294 78.931 153.667 79.75 154.629C80.737 155.789 82.41 155.38 83.747 155.38C83.862 155.38 83.977 155.383 84.09 155.384C84.492 155.637 84.906 155.865 85.306 156.077C89.356 158.225 93.421 160.349 97.49 162.463C105.595 166.675 113.665 171.056 121.936 174.934C125.769 176.733 129.871 178.305 134.164 178.299C138.191 178.293 141.831 176.693 144.975 174.26C148.558 171.489 151.554 167.97 154.461 164.521C155.623 163.141 156.761 161.744 157.879 160.328C160.025 159.611 162.155 159.402 164.069 160.784C165.605 161.894 167.629 160.385 167.665 158.719C167.678 158.135 167.653 157.551 167.589 156.97C167.205 153.419 165.468 150.206 163.511 147.227C162.435 145.6 161.325 143.994 160.184 142.412C159.918 142.04 159.657 141.663 159.402 141.283C163.951 134.583 167.559 127.154 169.778 119.391C172.108 111.223 172.9 102.752 172.381 94.2869C171.582 81.3149 168.024 67.5849 159.062 57.7869Z" fill="black"/>
<path fill-rule="evenodd" clip-rule="evenodd" d="M143.152 128.274C141.719 127.689 140.47 126.728 139.538 125.493C139.395 125.312 139.291 125.103 139.233 124.88C139.175 124.657 139.164 124.424 139.2 124.196C139.276 123.729 139.552 123.307 139.928 123.023C140.305 122.739 140.777 122.599 141.233 122.67C141.63 122.732 142.024 122.949 142.337 123.4L142.402 123.49C142.945 124.234 143.661 124.835 144.488 125.241C145.288 125.634 146.184 125.792 147.07 125.695C148.808 125.499 150.005 124.559 151.278 123.282C151.436 123.121 151.594 122.955 151.752 122.786C151.845 122.643 151.984 122.536 152.146 122.483C152.322 122.428 152.511 122.43 152.686 122.49C152.86 122.549 153.011 122.663 153.116 122.815C153.213 122.958 153.269 123.135 153.251 123.339C153.134 124.662 152.443 125.842 151.461 126.769C150.37 127.799 148.924 128.511 147.563 128.761C146.064 129.036 144.536 128.839 143.152 128.274ZM148.271 107.866C149.866 108.837 152.297 111.099 150.581 113.504C148.56 115.624 145.652 113.193 144.219 112.093C142.89 111.241 141.396 113.433 142.629 114.428C152.987 122.099 157.19 108.12 149.078 106.726C148.184 106.572 147.853 107.566 148.271 107.866ZM129.711 98.9431C129.887 96.7541 133.219 96.2571 133.551 98.4231C133.847 100.363 133.498 102.146 132.624 103.893C131.79 105.561 129.692 104.783 129.533 103.263C129.32 101.226 129.601 100.305 129.711 98.9431ZM155.076 97.9741C155.541 97.3651 156.212 96.9501 157.015 97.1841C159.526 97.9191 158.786 101.485 157.904 103.221C157.425 104.163 155.876 104.402 155.176 103.572C154.036 102.219 153.489 99.5161 154.94 98.1821C154.979 98.1141 155.023 98.0441 155.076 97.9741ZM132.589 89.3661L132.986 89.2961C134.213 89.0841 135.738 88.8801 136.606 89.8661C137.067 90.3901 137.225 91.3631 136.606 91.8641C135.518 92.7441 134.314 92.4041 133.01 92.4781C131.946 92.5391 130.891 92.7188 129.867 93.0141C127.595 93.6641 125.744 94.8491 123.804 96.1511C123.55 96.3211 123.29 95.9961 123.411 95.7581C124.531 93.5631 126.701 91.7611 128.875 90.6621C130.036 90.0751 131.305 89.5891 132.589 89.3661ZM152.787 88.3831L153.091 88.4451C156.395 89.1351 160.687 90.5151 162.251 93.7621C162.311 94.2211 162.248 94.3191 162.197 94.3831L162.18 94.4051C162.137 94.4601 162.104 94.5351 161.905 94.5981C161.849 94.5847 161.793 94.5707 161.737 94.5561C161.02 94.3681 160.453 94.1091 159.904 93.8401L159.308 93.5471C158.617 93.2071 157.92 92.8811 157.181 92.6401C155.606 92.124 153.983 91.7655 152.337 91.5701C151.986 91.5352 151.65 91.4075 151.365 91.2001C151.093 90.996 150.901 90.7036 150.821 90.3731C150.705 89.9061 150.739 89.5531 150.989 89.1311C151.177 88.8151 151.447 88.5961 151.756 88.4701C152.084 88.3407 152.442 88.3105 152.787 88.3831Z" fill="black"/>
</svg>
